<?xml version="1.0" encoding="utf-8"?>
<!-- Generator: Adobe Illustrator 16.0.4, SVG Export Plug-In . SVG Version: 6.00 Build 0)  -->
<!DOCTYPE svg PUBLIC "-//W3C//DTD SVG 1.1//EN" "http://www.w3.org/Graphics/SVG/1.1/DTD/svg11.dtd">
<svg version="1.1" id="Layer_1" xmlns="http://www.w3.org/2000/svg" xmlns:xlink="http://www.w3.org/1999/xlink" x="0px" y="0px"
	 width="67px" height="65px" viewBox="-3.978 -4.206 67 65" enable-background="new -3.978 -4.206 67 65" xml:space="preserve">
<title>Icon Next Blue &amp; Light Braun</title>
<title>Layer 1</title>
<path id="path5170" marker-end="none" marker-mid="none" marker-start="none" fill="none" stroke="#005FBF" stroke-width="8" stroke-miterlimit="10" d="
	M55.474,28.089C55.497,42.714,43.66,54.59,29.034,54.614C14.409,54.638,2.533,42.801,2.51,28.176c0-0.029,0-0.059,0-0.087
	C2.486,13.463,14.322,1.587,28.947,1.564c14.626-0.024,26.502,11.812,26.526,26.438C55.474,28.031,55.474,28.06,55.474,28.089z"/>
<g>

		<path id="path5176" marker-end="none" marker-mid="none" marker-start="none" fill="#005FBF" stroke="#005FBF" stroke-width="4" stroke-miterlimit="10" d="
		M22.236,18.34l-2.603,2.603l7.371,7.371l-7.3,7.301l2.622,2.622l9.903-9.903L22.236,18.34z"/>

		<path id="path5176_1_" marker-end="none" marker-mid="none" marker-start="none" fill="#005FBF" stroke="#005FBF" stroke-width="4" stroke-miterlimit="10" d="
		M37.187,38.237l2.603-2.603l-7.371-7.372l7.3-7.301l-2.622-2.622l-9.903,9.903L37.187,38.237z"/>
</g>
</svg>
